# xmcd
#
# Track frame offsets: 
#        150
#        13830
#        28607
#        47527
#        60085
#        75592
#        96415
#        111652
#        125370
#        139315
#        158625
#        169187
#        182252
#        197555
#        216020
#
# Disc length: 3235 seconds
#
# Revision: 2
# Processed by: cddbd v1.5.1PL2 Copyright (c) Steve Scherf et al.
# Submitted via: ExactAudioCopy v0.95b4
#
DISCID=c20ca10f
DTITLE=Bluerinse Cowboys - Wanted .....One Way Or Another
DYEAR=1997
DGENRE=Country
TTITLE0=ONCE IN MY LIFE
TTITLE1=THE GOOD GUY
TTITLE2=MIDNIGHT WIND
TTITLE3=5 TO 10
TTITLE4=SPIRIT FROM WITHIN
TTITLE5=DIAMANTINA DROVER
TTITLE6=REAL COWBOYS DON'T LINEDANCE
TTITLE7=CLOWN FOR A RODEO MAN
TTITLE8=MAKIN' THE BEST OF THE BLUES
TTITLE9=THE LAST RIDE
TTITLE10=DON'T SAY YOU HAVEN'T BEEN WARNED
TTITLE11=THAT'S THAT
TTITLE12=ROMANCE FOR FOOLS
TTITLE13=LIFE SUX
TTITLE14='94
EXTD=
EXTT0=
EXTT1=
EXTT2=
EXTT3=
EXTT4=
EXTT5=
EXTT6=
EXTT7=
EXTT8=
EXTT9=
EXTT10=
EXTT11=
EXTT12=
EXTT13=
EXTT14=
PLAYORDER=
